
<svg width="1920" height="904" viewBox="0 0 1920 904" fill="none" xmlns="http://www.w3.org/2000/svg">
<line x1="1920" y1="61.5" x2="1.31134e-07" y2="61.5002" stroke="white" stroke-opacity="0.03" stroke-width="3"/>
<line x1="1920" y1="1.5" x2="1.31134e-07" y2="1.50017" stroke="white" stroke-opacity="0.03" stroke-width="3"/>
<line x1="1920" y1="421.5" x2="1.31134e-07" y2="421.5" stroke="white" stroke-opacity="0.03" stroke-width="3"/>
<line x1="1920" y1="781.5" x2="1.31134e-07" y2="781.5" stroke="white" stroke-opacity="0.03" stroke-width="3"/>
<line x1="1920" y1="241.5" x2="1.31134e-07" y2="241.5" stroke="white" stroke-opacity="0.03" stroke-width="3"/>
<line x1="1920" y1="601.5" x2="1.31134e-07" y2="601.5" stroke="white" stroke-opacity="0.03" stroke-width="3"/>
<line x1="1920" y1="121.5" x2="1.31134e-07" y2="121.5" stroke="white" stroke-opacity="0.03" stroke-width="3"/>
<line x1="1920" y1="481.5" x2="1.31134e-07" y2="481.5" stroke="white" stroke-opacity="0.03" stroke-width="3"/>
<line x1="1920" y1="841.5" x2="1.31134e-07" y2="841.5" stroke="white" stroke-opacity="0.03" stroke-width="3"/>
<line x1="1920" y1="301.5" x2="1.31134e-07" y2="301.5" stroke="white" stroke-opacity="0.03" stroke-width="3"/>
<line x1="1920" y1="661.5" x2="1.31134e-07" y2="661.5" stroke="white" stroke-opacity="0.03" stroke-width="3"/>
<line x1="1920" y1="181.5" x2="1.31134e-07" y2="181.5" stroke="white" stroke-opacity="0.03" stroke-width="3"/>
<line x1="1920" y1="541.5" x2="1.31134e-07" y2="541.5" stroke="white" stroke-opacity="0.03" stroke-width="3"/>
<line x1="1920" y1="901.5" x2="1.31134e-07" y2="901.5" stroke="white" stroke-opacity="0.03" stroke-width="3"/>
<line x1="1920" y1="361.5" x2="1.31134e-07" y2="361.5" stroke="white" stroke-opacity="0.03" stroke-width="3"/>
<line x1="1920" y1="721.5" x2="1.31134e-07" y2="721.5" stroke="white" stroke-opacity="0.03" stroke-width="3"/>
<line x1="1919" y1="4.37114e-08" x2="1919" y2="903" stroke="white" stroke-opacity="0.03" stroke-width="2"/>
<line x1="839" y1="1" x2="839" y2="904" stroke="white" stroke-opacity="0.03" stroke-width="2"/>
<line x1="1379" y1="4.37114e-08" x2="1379" y2="903" stroke="white" stroke-opacity="0.03" stroke-width="2"/>
<line x1="299" y1="1" x2="299" y2="904" stroke="white" stroke-opacity="0.03" stroke-width="2"/>
<line x1="1859.5" y1="6.55671e-08" x2="1859.5" y2="903" stroke="white" stroke-opacity="0.03" stroke-width="3"/>
<line x1="779.5" y1="1" x2="779.5" y2="904" stroke="white" stroke-opacity="0.03" stroke-width="3"/>
<line x1="1319.5" y1="6.55671e-08" x2="1319.5" y2="903" stroke="white" stroke-opacity="0.03" stroke-width="3"/>
<line x1="239.5" y1="1" x2="239.5" y2="904" stroke="white" stroke-opacity="0.03" stroke-width="3"/>
<line x1="1619.5" y1="6.55671e-08" x2="1619.5" y2="903" stroke="white" stroke-opacity="0.03" stroke-width="3"/>
<line x1="539.5" y1="1" x2="539.5" y2="904" stroke="white" stroke-opacity="0.03" stroke-width="3"/>
<line x1="1079.5" y1="6.55671e-08" x2="1079.5" y2="903" stroke="white" stroke-opacity="0.03" stroke-width="3"/>
<line x1="1.49988" y1="1" x2="1.49984" y2="904" stroke="white" stroke-opacity="0.03" stroke-width="3"/>
<line x1="1799.5" y1="6.55671e-08" x2="1799.5" y2="903" stroke="white" stroke-opacity="0.03" stroke-width="3"/>
<line x1="719.5" y1="1" x2="719.5" y2="904" stroke="white" stroke-opacity="0.03" stroke-width="3"/>
<line x1="1259.5" y1="6.55671e-08" x2="1259.5" y2="903" stroke="white" stroke-opacity="0.03" stroke-width="3"/>
<line x1="179.5" y1="1" x2="179.5" y2="904" stroke="white" stroke-opacity="0.03" stroke-width="3"/>
<line x1="1559.5" y1="6.55671e-08" x2="1559.5" y2="903" stroke="white" stroke-opacity="0.03" stroke-width="3"/>
<line x1="479.5" y1="1" x2="479.5" y2="904" stroke="white" stroke-opacity="0.03" stroke-width="3"/>
<line x1="1019.5" y1="6.55671e-08" x2="1019.5" y2="903" stroke="white" stroke-opacity="0.03" stroke-width="3"/>
<line x1="1679.5" y1="6.55671e-08" x2="1679.5" y2="903" stroke="white" stroke-opacity="0.03" stroke-width="3"/>
<line x1="599.5" y1="1" x2="599.5" y2="904" stroke="white" stroke-opacity="0.03" stroke-width="3"/>
<line x1="1139.5" y1="6.55671e-08" x2="1139.5" y2="903" stroke="white" stroke-opacity="0.03" stroke-width="3"/>
<line x1="59.5" y1="1" x2="59.5" y2="904" stroke="white" stroke-opacity="0.03" stroke-width="3"/>
<line x1="1439.5" y1="6.55671e-08" x2="1439.5" y2="903" stroke="white" stroke-opacity="0.03" stroke-width="3"/>
<line x1="359.5" y1="1" x2="359.5" y2="904" stroke="white" stroke-opacity="0.03" stroke-width="3"/>
<line x1="899.5" y1="6.55671e-08" x2="899.5" y2="903" stroke="white" stroke-opacity="0.03" stroke-width="3"/>
<line x1="1739.5" y1="6.55671e-08" x2="1739.5" y2="903" stroke="white" stroke-opacity="0.03" stroke-width="3"/>
<line x1="659.5" y1="1" x2="659.5" y2="904" stroke="white" stroke-opacity="0.03" stroke-width="3"/>
<line x1="1199.5" y1="6.55671e-08" x2="1199.5" y2="903" stroke="white" stroke-opacity="0.03" stroke-width="3"/>
<line x1="119.5" y1="1" x2="119.5" y2="904" stroke="white" stroke-opacity="0.03" stroke-width="3"/>
<line x1="1499.5" y1="6.55671e-08" x2="1499.5" y2="903" stroke="white" stroke-opacity="0.03" stroke-width="3"/>
<line x1="419.5" y1="1" x2="419.5" y2="904" stroke="white" stroke-opacity="0.03" stroke-width="3"/>
<line x1="959.5" y1="6.55671e-08" x2="959.5" y2="903" stroke="white" stroke-opacity="0.03" stroke-width="3"/>
</svg>