<?xml version="1.0" encoding="UTF-8" standalone="no" ?>
<!DOCTYPE svg PUBLIC "-//W3C//DTD SVG 1.1//EN" "http://www.w3.org/Graphics/SVG/1.1/DTD/svg11.dtd">
<svg xmlns="http://www.w3.org/2000/svg" xmlns:xlink="http://www.w3.org/1999/xlink" version="1.1" width="400" height="400" viewBox="0 0 600.000000 600.000000" xml:space="preserve">
<desc>Created with Fabric.js 5.2.4</desc>
<defs>
</defs>
<g transform="matrix(1 0 0 1 540 540)" id="f04e93b4-543c-4bc4-b67f-4fd33bed97e3"  >
<rect style="stroke: none; stroke-width: 1; stroke-dasharray: none; stroke-linecap: butt; stroke-dashoffset: 0; stroke-linejoin: miter; stroke-miterlimit: 4; fill: rgb(255,255,255); fill-rule: nonzero; opacity: 1; visibility: hidden;" vector-effect="non-scaling-stroke"  x="-540" y="-540" rx="0" ry="0" width="1080" height="1080" />
</g>
<g transform="matrix(1 0 0 1 540 540)" id="4b4c0fae-952d-44b8-8c95-35df9efd5f14"  >
</g>
<g transform="matrix(1 0 0 1 540 540)" id="2e8f7a4c-7c12-43e3-9c08-2bc58849ee21"  >
<path style="stroke: rgb(255,255,255); stroke-width: 0; stroke-dasharray: none; stroke-linecap: butt; stroke-dashoffset: 0; stroke-linejoin: miter; stroke-miterlimit: 4; fill: rgb(255,255,255); fill-rule: nonzero; opacity: 1;" vector-effect="non-scaling-stroke"  transform=" translate(-3059.67, -3060.85)" d="M 1940 3944 C 1940 3740 1942 3704 1957 3679 C 1992 3619 1987 3620 2572 3620 C 3147 3620 3185 3617 3296 3566 C 3486 3479 3619 3269 3620 3054 C 3620 2989 3589 2867 3554 2798 C 3515 2720 3388 2597 3308 2560 C 3195 2507 3137 2500 2803 2500 L 2501 2500 L 2498 2746 L 2495 2992 L 2458 3026 L 2420 3060 L 2180 3060 L 1940 3060 L 1940 2824 C 1940 2484 1924 2500 2264 2500 L 2500 2500 L 2500 2264 C 2500 2044 2501 2025 2520 1995 C 2554 1940 2566 1938 2921 1942 C 3235 1946 3248 1947 3345 1973 C 3463 2005 3638 2089 3730 2159 C 3960 2333 4112 2579 4166 2868 C 4190 2998 4181 3212 4146 3345 C 4115 3459 4052 3599 3990 3690 C 3934 3772 3814 3898 3731 3961 C 3640 4030 3465 4115 3345 4147 L 3245 4175 L 2593 4178 L 1940 4181 L 1940 3944 z" stroke-linecap="round" />
</g>
</svg>