<svg xmlns="http://www.w3.org/2000/svg" version="1.1" xmlns:xlink="http://www.w3.org/1999/xlink" xmlns:svgjs="http://svgjs.com/svgjs" width="1000" height="1000"><svg xmlns="http://www.w3.org/2000/svg" xmlns:xlink="http://www.w3.org/1999/xlink" version="1.1" width="1000" height="1000" viewBox="0 0 1000 1000" xml:space="preserve">
<desc>Created with Fabric.js 3.5.0</desc>
<defs>
</defs>
<rect x="0" y="0" width="100%" height="100%" fill="#121212"></rect>
<g transform="matrix(82.8018 0 0 82.7424 500.0001 496.9544)" id="SvgjsG1000">
<path style="stroke: none; stroke-width: 1; stroke-dasharray: none; stroke-linecap: butt; stroke-dashoffset: 0; stroke-linejoin: miter; stroke-miterlimit: 4; is-custom-font: none; font-file-url: none; fill: rgb(255,255,255); fill-rule: nonzero; opacity: 1;" vector-effect="non-scaling-stroke" transform=" translate(-5.8034, -6)" d="M 2.88 9 H 1.68 C 1.34 9 1 9 0.65 9 A 0.61 0.61 0 0 1 0 8.41 C 0 7.61 0 6.81 0 6 C 0.82 6 1.6 6 2.37 6 a 0.62 0.62 0 0 1 0.57 0.67 c 0 0.67 0 1.34 0 2 c 0 0.22 0 0.31 0.28 0.3 c 0.83 0 1.66 0 2.49 0 A 2.9 2.9 0 0 0 8.65 5.91 A 2.89 2.89 0 0 0 5.79 3.05 c -1.62 0 -3.25 0 -4.88 0 c -0.74 0 -0.92 -0.4 -0.91 -1 S 0 0.73 0 0 H 0.57 C 2.38 0 4.19 0 6 0 a 5.82 5.82 0 0 1 5.53 5.09 a 6 6 0 0 1 -1.59 5.11 A 5.36 5.36 0 0 1 6 12 c -0.8 0 -1.61 0 -2.41 0 c -0.53 0 -0.74 -0.27 -0.74 -0.83 s 0 -1.32 0 -2 A 1.49 1.49 0 0 0 2.88 9 Z" stroke-linecap="round"></path>
</g>
</svg><style>@media (prefers-color-scheme: light) { :root { filter: none; } }
</style></svg>